# xmcd
#
# Track frame offsets:
#	150
#	13050
#	34931
#	54825
#	61387
#	86025
#	108150
#	124612
#	142612
#	166034
#	184022
#	194715
#	209737
#
# Disc length: 2922 seconds
#
# Revision: 0
# Processed by: cddbd v1.5.2PL0 Copyright (c) Steve Scherf et al.
# Submitted via: dBpowerAMP V4.0
#
DISCID=ae0b680d
DTITLE=BERNARD ADAMUS - Brun.
DYEAR=2009
DGENRE=
TTITLE0=Cauchemar de course
TTITLE1=Brun
TTITLE2=La question à 100 piasses
TTITLE3=Le bol...
TTITLE4=La brise
TTITLE5=Les raisons
TTITLE6=Avec les doigts de ma main
TTITLE7=Le fou de l'île
TTITLE8=Acapulco
TTITLE9=Le cimetière
TTITLE10=de toilette
TTITLE11=La foule
TTITLE12=Y fait chaud
EXTD=
EXTT0=
EXTT1=
EXTT2=
EXTT3=
EXTT4=
EXTT5=
EXTT6=
EXTT7=
EXTT8=
EXTT9=
EXTT10=
EXTT11=
EXTT12=
PLAYORDER=
